<mxfile host="app.diagrams.net" modified="2023-12-04T13:41:11.832Z" agent="Mozilla/5.0 (Macintosh; Intel Mac OS X 10_15_7) AppleWebKit/537.36 (KHTML, like Gecko) Chrome/119.0.0.0 Safari/537.36" etag="2wIXshAxg_NlPGemU0hh" version="22.1.5" type="device">
  <diagram name="ページ1" id="fu776fGeynSo5gwmmyIW">
    <mxGraphModel dx="955" dy="607" grid="1" gridSize="10" guides="1" tooltips="1" connect="1" arrows="1" fold="1" page="1" pageScale="1" pageWidth="827" pageHeight="1169" math="0" shadow="0">
      <root>
        <mxCell id="0" />
        <mxCell id="1" parent="0" />
        <mxCell id="cA42I65lkPS70WluOvvI-71" value="" style="rounded=0;whiteSpace=wrap;html=1;fillColor=none;" parent="1" vertex="1">
          <mxGeometry x="10" y="10" width="560" height="480" as="geometry" />
        </mxCell>
        <mxCell id="cA42I65lkPS70WluOvvI-27" value="" style="endArrow=classic;html=1;rounded=0;endFill=1;exitX=0.5;exitY=1;exitDx=0;exitDy=0;" parent="1" source="cA42I65lkPS70WluOvvI-22" edge="1">
          <mxGeometry width="50" height="50" relative="1" as="geometry">
            <mxPoint x="190" y="420" as="sourcePoint" />
            <mxPoint x="190" y="480" as="targetPoint" />
          </mxGeometry>
        </mxCell>
        <mxCell id="cA42I65lkPS70WluOvvI-1" value="" style="verticalLabelPosition=bottom;sketch=0;html=1;fillColor=#282828;strokeColor=none;verticalAlign=top;pointerEvents=1;align=center;shape=mxgraph.cisco_safe.people_places_things_icons.icon9;" parent="1" vertex="1">
          <mxGeometry x="655" y="215" width="50" height="45" as="geometry" />
        </mxCell>
        <mxCell id="cA42I65lkPS70WluOvvI-2" value="開発・Mobile（日本）" style="rounded=0;whiteSpace=wrap;html=1;fillColor=#d5e8d4;strokeColor=#82b366;" parent="1" vertex="1">
          <mxGeometry x="605" y="20" width="150" height="20" as="geometry" />
        </mxCell>
        <mxCell id="cA42I65lkPS70WluOvvI-3" value="開発・Mobile（ベトナム）" style="rounded=0;whiteSpace=wrap;html=1;fillColor=#dae8fc;strokeColor=#6c8ebf;" parent="1" vertex="1">
          <mxGeometry x="20" y="20" width="150" height="20" as="geometry" />
        </mxCell>
        <mxCell id="cA42I65lkPS70WluOvvI-7" value="" style="verticalLabelPosition=bottom;sketch=0;html=1;fillColor=#282828;strokeColor=none;verticalAlign=top;pointerEvents=1;align=center;shape=mxgraph.cisco_safe.people_places_things_icons.icon9;" parent="1" vertex="1">
          <mxGeometry x="40" y="250" width="50" height="45" as="geometry" />
        </mxCell>
        <mxCell id="cA42I65lkPS70WluOvvI-22" value="トランクブランチ" style="text;html=1;strokeColor=none;fillColor=none;align=center;verticalAlign=middle;whiteSpace=wrap;rounded=0;" parent="1" vertex="1">
          <mxGeometry x="135" y="45" width="110" height="30" as="geometry" />
        </mxCell>
        <mxCell id="cA42I65lkPS70WluOvvI-23" value="" style="ellipse;whiteSpace=wrap;html=1;aspect=fixed;fillColor=#d5e8d4;strokeColor=#82b366;" parent="1" vertex="1">
          <mxGeometry x="180" y="120" width="20" height="20" as="geometry" />
        </mxCell>
        <mxCell id="cA42I65lkPS70WluOvvI-24" value="機能A" style="text;html=1;strokeColor=none;fillColor=none;align=center;verticalAlign=middle;whiteSpace=wrap;rounded=0;" parent="1" vertex="1">
          <mxGeometry x="200" y="115" width="50" height="30" as="geometry" />
        </mxCell>
        <mxCell id="cA42I65lkPS70WluOvvI-29" value="" style="ellipse;whiteSpace=wrap;html=1;aspect=fixed;fillColor=#d5e8d4;strokeColor=#82b366;" parent="1" vertex="1">
          <mxGeometry x="180" y="160" width="20" height="20" as="geometry" />
        </mxCell>
        <mxCell id="cA42I65lkPS70WluOvvI-30" value="バグ修正X" style="text;html=1;strokeColor=none;fillColor=none;align=center;verticalAlign=middle;whiteSpace=wrap;rounded=0;" parent="1" vertex="1">
          <mxGeometry x="200" y="155" width="70" height="30" as="geometry" />
        </mxCell>
        <mxCell id="cA42I65lkPS70WluOvvI-33" value="機能B（フィーチャートグル）・対応1" style="text;html=1;strokeColor=none;fillColor=none;align=center;verticalAlign=middle;whiteSpace=wrap;rounded=0;" parent="1" vertex="1">
          <mxGeometry x="200" y="195" width="220" height="30" as="geometry" />
        </mxCell>
        <mxCell id="cA42I65lkPS70WluOvvI-34" value="" style="ellipse;whiteSpace=wrap;html=1;aspect=fixed;fillColor=#d5e8d4;strokeColor=#82b366;" parent="1" vertex="1">
          <mxGeometry x="180" y="200" width="20" height="20" as="geometry" />
        </mxCell>
        <mxCell id="cA42I65lkPS70WluOvvI-37" value="" style="ellipse;whiteSpace=wrap;html=1;aspect=fixed;fillColor=#d5e8d4;strokeColor=#82b366;" parent="1" vertex="1">
          <mxGeometry x="180" y="240" width="20" height="20" as="geometry" />
        </mxCell>
        <mxCell id="cA42I65lkPS70WluOvvI-39" value="バグ修正Y" style="text;html=1;strokeColor=none;fillColor=none;align=center;verticalAlign=middle;whiteSpace=wrap;rounded=0;" parent="1" vertex="1">
          <mxGeometry x="200" y="235" width="70" height="30" as="geometry" />
        </mxCell>
        <mxCell id="cA42I65lkPS70WluOvvI-40" value="" style="ellipse;whiteSpace=wrap;html=1;aspect=fixed;fillColor=#d5e8d4;strokeColor=#82b366;" parent="1" vertex="1">
          <mxGeometry x="180" y="280" width="20" height="20" as="geometry" />
        </mxCell>
        <mxCell id="cA42I65lkPS70WluOvvI-41" value="機能B（フィーチャートグル）・対応2" style="text;html=1;strokeColor=none;fillColor=none;align=center;verticalAlign=middle;whiteSpace=wrap;rounded=0;" parent="1" vertex="1">
          <mxGeometry x="200" y="275" width="220" height="30" as="geometry" />
        </mxCell>
        <mxCell id="cA42I65lkPS70WluOvvI-42" value="機能B（フィーチャートグル）・対応3" style="text;html=1;strokeColor=none;fillColor=none;align=center;verticalAlign=middle;whiteSpace=wrap;rounded=0;" parent="1" vertex="1">
          <mxGeometry x="200" y="355" width="220" height="30" as="geometry" />
        </mxCell>
        <mxCell id="cA42I65lkPS70WluOvvI-43" value="" style="ellipse;whiteSpace=wrap;html=1;aspect=fixed;fillColor=#f8cecc;strokeColor=#b85450;" parent="1" vertex="1">
          <mxGeometry x="180" y="320" width="20" height="20" as="geometry" />
        </mxCell>
        <mxCell id="cA42I65lkPS70WluOvvI-44" value="機能C" style="text;html=1;strokeColor=none;fillColor=none;align=center;verticalAlign=middle;whiteSpace=wrap;rounded=0;" parent="1" vertex="1">
          <mxGeometry x="200" y="315" width="50" height="30" as="geometry" />
        </mxCell>
        <mxCell id="cA42I65lkPS70WluOvvI-46" value="" style="group" parent="1" vertex="1" connectable="0">
          <mxGeometry x="450" y="120" width="70" height="30" as="geometry" />
        </mxCell>
        <mxCell id="cA42I65lkPS70WluOvvI-25" value="検証OK" style="text;html=1;strokeColor=none;fillColor=none;align=center;verticalAlign=middle;whiteSpace=wrap;rounded=0;fontStyle=2;fontColor=#666666;" parent="cA42I65lkPS70WluOvvI-46" vertex="1">
          <mxGeometry x="10" width="60" height="30" as="geometry" />
        </mxCell>
        <mxCell id="cA42I65lkPS70WluOvvI-26" value="" style="sketch=0;html=1;aspect=fixed;strokeColor=none;shadow=0;align=center;fillColor=#2D9C5E;verticalAlign=top;labelPosition=center;verticalLabelPosition=bottom;shape=mxgraph.gcp2.check" parent="cA42I65lkPS70WluOvvI-46" vertex="1">
          <mxGeometry x="-7" y="5" width="25" height="20" as="geometry" />
        </mxCell>
        <mxCell id="cA42I65lkPS70WluOvvI-47" value="" style="group" parent="1" vertex="1" connectable="0">
          <mxGeometry x="450" y="155" width="70" height="30" as="geometry" />
        </mxCell>
        <mxCell id="cA42I65lkPS70WluOvvI-48" value="検証OK" style="text;html=1;strokeColor=none;fillColor=none;align=center;verticalAlign=middle;whiteSpace=wrap;rounded=0;fontStyle=2;fontColor=#666666;" parent="cA42I65lkPS70WluOvvI-47" vertex="1">
          <mxGeometry x="10" width="60" height="30" as="geometry" />
        </mxCell>
        <mxCell id="cA42I65lkPS70WluOvvI-49" value="" style="sketch=0;html=1;aspect=fixed;strokeColor=none;shadow=0;align=center;fillColor=#2D9C5E;verticalAlign=top;labelPosition=center;verticalLabelPosition=bottom;shape=mxgraph.gcp2.check" parent="cA42I65lkPS70WluOvvI-47" vertex="1">
          <mxGeometry x="-7" y="5" width="25" height="20" as="geometry" />
        </mxCell>
        <mxCell id="cA42I65lkPS70WluOvvI-50" value="" style="group" parent="1" vertex="1" connectable="0">
          <mxGeometry x="450" y="195" width="70" height="30" as="geometry" />
        </mxCell>
        <mxCell id="cA42I65lkPS70WluOvvI-51" value="検証OK" style="text;html=1;strokeColor=none;fillColor=none;align=center;verticalAlign=middle;whiteSpace=wrap;rounded=0;fontStyle=2;fontColor=#666666;" parent="cA42I65lkPS70WluOvvI-50" vertex="1">
          <mxGeometry x="10" width="60" height="30" as="geometry" />
        </mxCell>
        <mxCell id="cA42I65lkPS70WluOvvI-52" value="" style="sketch=0;html=1;aspect=fixed;strokeColor=none;shadow=0;align=center;fillColor=#2D9C5E;verticalAlign=top;labelPosition=center;verticalLabelPosition=bottom;shape=mxgraph.gcp2.check" parent="cA42I65lkPS70WluOvvI-50" vertex="1">
          <mxGeometry x="-7" y="5" width="25" height="20" as="geometry" />
        </mxCell>
        <mxCell id="cA42I65lkPS70WluOvvI-53" value="" style="group" parent="1" vertex="1" connectable="0">
          <mxGeometry x="450" y="235" width="70" height="30" as="geometry" />
        </mxCell>
        <mxCell id="cA42I65lkPS70WluOvvI-54" value="検証OK" style="text;html=1;strokeColor=none;fillColor=none;align=center;verticalAlign=middle;whiteSpace=wrap;rounded=0;fontStyle=2;fontColor=#666666;" parent="cA42I65lkPS70WluOvvI-53" vertex="1">
          <mxGeometry x="10" width="60" height="30" as="geometry" />
        </mxCell>
        <mxCell id="cA42I65lkPS70WluOvvI-56" value="" style="group" parent="1" vertex="1" connectable="0">
          <mxGeometry x="450" y="275" width="70" height="30" as="geometry" />
        </mxCell>
        <mxCell id="cA42I65lkPS70WluOvvI-57" value="検証OK" style="text;html=1;strokeColor=none;fillColor=none;align=center;verticalAlign=middle;whiteSpace=wrap;rounded=0;fontStyle=2;fontColor=#666666;" parent="cA42I65lkPS70WluOvvI-56" vertex="1">
          <mxGeometry x="10" width="60" height="30" as="geometry" />
        </mxCell>
        <mxCell id="cA42I65lkPS70WluOvvI-58" value="" style="sketch=0;html=1;aspect=fixed;strokeColor=none;shadow=0;align=center;fillColor=#2D9C5E;verticalAlign=top;labelPosition=center;verticalLabelPosition=bottom;shape=mxgraph.gcp2.check" parent="cA42I65lkPS70WluOvvI-56" vertex="1">
          <mxGeometry x="-7" y="5" width="25" height="20" as="geometry" />
        </mxCell>
        <mxCell id="cA42I65lkPS70WluOvvI-60" value="" style="group" parent="1" vertex="1" connectable="0">
          <mxGeometry x="444" y="315" width="77" height="30" as="geometry" />
        </mxCell>
        <mxCell id="cA42I65lkPS70WluOvvI-45" value="" style="sketch=0;aspect=fixed;pointerEvents=1;shadow=0;dashed=0;html=1;strokeColor=none;labelPosition=center;verticalLabelPosition=bottom;verticalAlign=top;align=center;shape=mxgraph.mscae.enterprise.not_allowed;fillColor=#EA1C24;" parent="cA42I65lkPS70WluOvvI-60" vertex="1">
          <mxGeometry x="-2" y="2.5" width="25" height="25" as="geometry" />
        </mxCell>
        <mxCell id="cA42I65lkPS70WluOvvI-59" value="検証NG" style="text;html=1;strokeColor=none;fillColor=none;align=center;verticalAlign=middle;whiteSpace=wrap;rounded=0;fontStyle=2;fontColor=#666666;" parent="cA42I65lkPS70WluOvvI-60" vertex="1">
          <mxGeometry x="17" width="60" height="30" as="geometry" />
        </mxCell>
        <mxCell id="cA42I65lkPS70WluOvvI-61" value="" style="ellipse;whiteSpace=wrap;html=1;aspect=fixed;fillColor=#d5e8d4;strokeColor=#82b366;" parent="1" vertex="1">
          <mxGeometry x="180" y="360" width="20" height="20" as="geometry" />
        </mxCell>
        <mxCell id="cA42I65lkPS70WluOvvI-62" value="" style="ellipse;whiteSpace=wrap;html=1;aspect=fixed;" parent="1" vertex="1">
          <mxGeometry x="180" y="400" width="20" height="20" as="geometry" />
        </mxCell>
        <mxCell id="cA42I65lkPS70WluOvvI-63" value="バグ修正Z" style="text;html=1;strokeColor=none;fillColor=none;align=center;verticalAlign=middle;whiteSpace=wrap;rounded=0;" parent="1" vertex="1">
          <mxGeometry x="200" y="395" width="70" height="30" as="geometry" />
        </mxCell>
        <mxCell id="cA42I65lkPS70WluOvvI-64" value="" style="group" parent="1" vertex="1" connectable="0">
          <mxGeometry x="450" y="355" width="70" height="30" as="geometry" />
        </mxCell>
        <mxCell id="cA42I65lkPS70WluOvvI-65" value="検証OK" style="text;html=1;strokeColor=none;fillColor=none;align=center;verticalAlign=middle;whiteSpace=wrap;rounded=0;fontStyle=2;fontColor=#666666;" parent="cA42I65lkPS70WluOvvI-64" vertex="1">
          <mxGeometry x="10" width="60" height="30" as="geometry" />
        </mxCell>
        <mxCell id="cA42I65lkPS70WluOvvI-67" value="未検証" style="text;html=1;strokeColor=none;fillColor=none;align=center;verticalAlign=middle;whiteSpace=wrap;rounded=0;fontStyle=2;fontColor=#666666;" parent="1" vertex="1">
          <mxGeometry x="457" y="395" width="60" height="30" as="geometry" />
        </mxCell>
        <mxCell id="cA42I65lkPS70WluOvvI-68" value="機能B、完成（フィーチャートグル外す）" style="text;html=1;strokeColor=none;fillColor=none;align=center;verticalAlign=middle;whiteSpace=wrap;rounded=0;" parent="1" vertex="1">
          <mxGeometry x="200" y="435" width="240" height="30" as="geometry" />
        </mxCell>
        <mxCell id="cA42I65lkPS70WluOvvI-69" value="" style="ellipse;whiteSpace=wrap;html=1;aspect=fixed;" parent="1" vertex="1">
          <mxGeometry x="180" y="440" width="20" height="20" as="geometry" />
        </mxCell>
        <mxCell id="cA42I65lkPS70WluOvvI-70" value="未検証" style="text;html=1;strokeColor=none;fillColor=none;align=center;verticalAlign=middle;whiteSpace=wrap;rounded=0;fontStyle=2;fontColor=#666666;" parent="1" vertex="1">
          <mxGeometry x="457" y="435" width="60" height="30" as="geometry" />
        </mxCell>
        <mxCell id="cA42I65lkPS70WluOvvI-55" value="" style="sketch=0;html=1;aspect=fixed;strokeColor=none;shadow=0;align=center;fillColor=#2D9C5E;verticalAlign=top;labelPosition=center;verticalLabelPosition=bottom;shape=mxgraph.gcp2.check" parent="1" vertex="1">
          <mxGeometry x="443" y="240" width="25" height="20" as="geometry" />
        </mxCell>
        <mxCell id="cA42I65lkPS70WluOvvI-66" value="" style="sketch=0;html=1;aspect=fixed;strokeColor=none;shadow=0;align=center;fillColor=#2D9C5E;verticalAlign=top;labelPosition=center;verticalLabelPosition=bottom;shape=mxgraph.gcp2.check" parent="1" vertex="1">
          <mxGeometry x="443" y="360" width="25" height="20" as="geometry" />
        </mxCell>
        <mxCell id="cA42I65lkPS70WluOvvI-73" value="全てのタスクのPRを&lt;br&gt;トランクブランチにマージ" style="text;html=1;strokeColor=none;fillColor=none;align=center;verticalAlign=middle;whiteSpace=wrap;rounded=0;" parent="1" vertex="1">
          <mxGeometry x="20" y="77.5" width="150" height="30" as="geometry" />
        </mxCell>
        <mxCell id="cA42I65lkPS70WluOvvI-74" value="" style="endArrow=classic;html=1;rounded=0;" parent="1" edge="1">
          <mxGeometry width="50" height="50" relative="1" as="geometry">
            <mxPoint x="120" y="129.81" as="sourcePoint" />
            <mxPoint x="170" y="129.81" as="targetPoint" />
          </mxGeometry>
        </mxCell>
        <mxCell id="cA42I65lkPS70WluOvvI-75" value="" style="endArrow=classic;html=1;rounded=0;" parent="1" edge="1">
          <mxGeometry width="50" height="50" relative="1" as="geometry">
            <mxPoint x="120" y="169.81" as="sourcePoint" />
            <mxPoint x="170" y="169.81" as="targetPoint" />
          </mxGeometry>
        </mxCell>
        <mxCell id="cA42I65lkPS70WluOvvI-76" value="" style="endArrow=classic;html=1;rounded=0;" parent="1" edge="1">
          <mxGeometry width="50" height="50" relative="1" as="geometry">
            <mxPoint x="120" y="209.81" as="sourcePoint" />
            <mxPoint x="170" y="209.81" as="targetPoint" />
          </mxGeometry>
        </mxCell>
        <mxCell id="cA42I65lkPS70WluOvvI-77" value="" style="endArrow=classic;html=1;rounded=0;" parent="1" edge="1">
          <mxGeometry width="50" height="50" relative="1" as="geometry">
            <mxPoint x="120" y="249.81" as="sourcePoint" />
            <mxPoint x="170" y="249.81" as="targetPoint" />
          </mxGeometry>
        </mxCell>
        <mxCell id="cA42I65lkPS70WluOvvI-78" value="" style="endArrow=classic;html=1;rounded=0;" parent="1" edge="1">
          <mxGeometry width="50" height="50" relative="1" as="geometry">
            <mxPoint x="120" y="289.81" as="sourcePoint" />
            <mxPoint x="170" y="289.81" as="targetPoint" />
          </mxGeometry>
        </mxCell>
        <mxCell id="cA42I65lkPS70WluOvvI-79" value="" style="endArrow=classic;html=1;rounded=0;" parent="1" edge="1">
          <mxGeometry width="50" height="50" relative="1" as="geometry">
            <mxPoint x="120" y="329.81" as="sourcePoint" />
            <mxPoint x="170" y="329.81" as="targetPoint" />
          </mxGeometry>
        </mxCell>
        <mxCell id="cA42I65lkPS70WluOvvI-80" value="" style="endArrow=classic;html=1;rounded=0;" parent="1" edge="1">
          <mxGeometry width="50" height="50" relative="1" as="geometry">
            <mxPoint x="120" y="369.81" as="sourcePoint" />
            <mxPoint x="170" y="369.81" as="targetPoint" />
          </mxGeometry>
        </mxCell>
        <mxCell id="cA42I65lkPS70WluOvvI-81" value="" style="endArrow=classic;html=1;rounded=0;" parent="1" edge="1">
          <mxGeometry width="50" height="50" relative="1" as="geometry">
            <mxPoint x="120" y="409.81" as="sourcePoint" />
            <mxPoint x="170" y="409.81" as="targetPoint" />
          </mxGeometry>
        </mxCell>
        <mxCell id="cA42I65lkPS70WluOvvI-82" value="" style="endArrow=classic;html=1;rounded=0;" parent="1" edge="1">
          <mxGeometry width="50" height="50" relative="1" as="geometry">
            <mxPoint x="120" y="449.81" as="sourcePoint" />
            <mxPoint x="170" y="449.81" as="targetPoint" />
          </mxGeometry>
        </mxCell>
        <mxCell id="cA42I65lkPS70WluOvvI-84" value="全てのタスクを&lt;br&gt;トランクブランチ上で&lt;br&gt;ビルドしたアプリで検証" style="text;html=1;strokeColor=none;fillColor=none;align=center;verticalAlign=middle;whiteSpace=wrap;rounded=0;" parent="1" vertex="1">
          <mxGeometry x="412" y="65" width="150" height="55" as="geometry" />
        </mxCell>
        <mxCell id="cA42I65lkPS70WluOvvI-85" value="" style="shape=flexArrow;endArrow=classic;html=1;rounded=0;" parent="1" edge="1">
          <mxGeometry width="50" height="50" relative="1" as="geometry">
            <mxPoint x="630" y="289.73" as="sourcePoint" />
            <mxPoint x="580" y="289.73" as="targetPoint" />
          </mxGeometry>
        </mxCell>
        <mxCell id="cA42I65lkPS70WluOvvI-86" value="この時点までを&lt;br&gt;全てリリース" style="text;html=1;strokeColor=none;fillColor=none;align=center;verticalAlign=middle;whiteSpace=wrap;rounded=0;" parent="1" vertex="1">
          <mxGeometry x="630" y="265" width="100" height="45" as="geometry" />
        </mxCell>
        <mxCell id="cA42I65lkPS70WluOvvI-87" value="" style="endArrow=none;dashed=1;html=1;dashPattern=1 3;strokeWidth=2;rounded=0;" parent="1" edge="1">
          <mxGeometry width="50" height="50" relative="1" as="geometry">
            <mxPoint x="180" y="312.5" as="sourcePoint" />
            <mxPoint x="760" y="313" as="targetPoint" />
          </mxGeometry>
        </mxCell>
        <mxCell id="p71wESu2PxPEderT73AE-1" style="edgeStyle=orthogonalEdgeStyle;rounded=0;orthogonalLoop=1;jettySize=auto;html=1;exitX=0.5;exitY=1;exitDx=0;exitDy=0;" edge="1" parent="1" source="cA42I65lkPS70WluOvvI-2" target="cA42I65lkPS70WluOvvI-2">
          <mxGeometry relative="1" as="geometry" />
        </mxCell>
      </root>
    </mxGraphModel>
  </diagram>
</mxfile>
